<svg width="21" height="20" viewBox="0 0 21 20" fill="none" xmlns="http://www.w3.org/2000/svg"><path d="M3.27152 6.49583C2.92734 6.49583 2.63532 6.61586 2.39527 6.85591C2.15522 7.09596 2.03516 7.38401 2.03516 7.72021V12.8822C2.03516 13.2268 2.15518 13.5186 2.39527 13.7586C2.63532 13.9987 2.92734 14.1187 3.27152 14.1187C3.61545 14.1187 3.9057 13.9987 4.14203 13.7586C4.37789 13.5186 4.49615 13.2268 4.49615 12.8822V7.72021C4.49615 7.38397 4.37612 7.09596 4.13604 6.85591C3.89595 6.61586 3.60772 6.49583 3.27152 6.49583ZM13.2115 1.86194L14.0638 0.289595C14.1198 0.1855 14.0999 0.105676 14.0039 0.0495464C13.8998 0.00114654 13.8198 0.0256716 13.7639 0.121388L12.8996 1.7063C12.1391 1.37007 11.3348 1.20164 10.4866 1.20164C9.63824 1.20164 8.83383 1.37011 8.07362 1.7063L7.20932 0.121388C7.15316 0.0256716 7.07315 0.00136326 6.96927 0.0495464C6.87312 0.105929 6.85322 0.1855 6.90939 0.289595L7.76177 1.86194C6.89747 2.30271 6.20911 2.91655 5.69693 3.70482C5.18476 4.49352 4.92857 5.3554 4.92857 6.29198H16.0326C16.0326 5.35562 15.7764 4.4937 15.2642 3.70482C14.752 2.91655 14.0676 2.30271 13.2115 1.86194ZM8.28362 4.14895C8.19144 4.24134 8.08135 4.28732 7.95338 4.28732C7.82516 4.28732 7.71731 4.24134 7.62932 4.14895C7.54133 4.05699 7.49734 3.94733 7.49734 3.81892C7.49734 3.69095 7.54133 3.58108 7.62932 3.4889C7.71731 3.39694 7.82541 3.35096 7.95338 3.35096C8.08135 3.35096 8.19144 3.39694 8.28362 3.4889C8.37558 3.58129 8.42178 3.69095 8.42178 3.81892C8.42153 3.94711 8.37536 4.05699 8.28362 4.14895ZM13.3434 4.14895C13.2553 4.24134 13.1472 4.28732 13.0194 4.28732C12.8911 4.28732 12.7811 4.24134 12.6891 4.14895C12.597 4.05699 12.551 3.94733 12.551 3.81892C12.551 3.69095 12.597 3.58108 12.6891 3.4889C12.7811 3.39694 12.8911 3.35096 13.0194 3.35096C13.1474 3.35096 13.2552 3.39694 13.3434 3.4889C13.4315 3.58129 13.4754 3.69095 13.4754 3.81892C13.4754 3.94711 13.4315 4.05699 13.3434 4.14895ZM4.97625 14.7189C4.97625 15.0874 5.10422 15.3993 5.36019 15.6553C5.61639 15.9112 5.92832 16.0392 6.29655 16.0392H7.18494L7.19712 18.7646C7.19712 19.1087 7.31714 19.4009 7.55719 19.641C7.79724 19.8811 8.08551 20.0011 8.42149 20.0011C8.76545 20.0011 9.05766 19.8811 9.29774 19.641C9.53783 19.4009 9.65785 19.1087 9.65785 18.7646V16.0395H11.3144V18.7646C11.3144 19.1087 11.4344 19.4009 11.6745 19.641C11.9146 19.8811 12.2065 20.0011 12.5508 20.0011C12.8947 20.0011 13.1869 19.8811 13.427 19.641C13.6671 19.4009 13.7871 19.1087 13.7871 18.7646V16.0395H14.6875C15.0475 16.0395 15.3555 15.9115 15.6119 15.6555C15.8679 15.3995 15.9959 15.0876 15.9959 14.7191V6.72371H4.97625V14.7189ZM17.7012 6.49583C17.365 6.49583 17.077 6.61409 16.8369 6.84995C16.5968 7.08624 16.4768 7.3765 16.4768 7.72021V12.8822C16.4768 13.2268 16.5968 13.5186 16.8369 13.7586C17.077 13.9987 17.3652 14.1187 17.7012 14.1187C18.0452 14.1187 18.3374 13.9987 18.5775 13.7586C18.8176 13.5186 18.9376 13.2268 18.9376 12.8822V7.72021C18.9376 7.37646 18.8176 7.08624 18.5775 6.84995C18.3374 6.61409 18.0452 6.49583 17.7012 6.49583Z" fill="#1F4F62"/><defs><clipPath id="clip0_93_5494"><path fill="#fff" transform="translate(.488)" d="M0 0H20V20H0z"/></clipPath></defs></svg>