<svg width="20" height="20" viewBox="0 0 20 20" fill="none" xmlns="http://www.w3.org/2000/svg"><path d="M2.78324 6.49388C2.43906 6.49388 2.14703 6.61391 1.90698 6.85396C1.66694 7.09401 1.54688 7.38206 1.54688 7.71826V12.8802C1.54688 13.2248 1.6669 13.5166 1.90698 13.7567C2.14703 13.9967 2.43906 14.1168 2.78324 14.1168C3.12717 14.1168 3.41742 13.9968 3.65375 13.7567C3.88961 13.5166 4.00787 13.2248 4.00787 12.8802V7.71826C4.00787 7.38202 3.88784 7.09401 3.64776 6.85396C3.40767 6.61391 3.11944 6.49388 2.78324 6.49388ZM12.7232 1.85999L13.5756 0.287642C13.6315 0.183546 13.6116 0.103723 13.5157 0.0475933C13.4115 -0.000806591 13.3315 0.0237184 13.2756 0.119435L12.4114 1.70435C11.6509 1.36812 10.8465 1.19969 9.99833 1.19969C9.14996 1.19969 8.34555 1.36815 7.58534 1.70435L6.72104 0.119435C6.66488 0.0237184 6.58487 -0.000589874 6.48099 0.0475933C6.38484 0.103976 6.36494 0.183546 6.42111 0.287642L7.27349 1.85999C6.40919 2.30075 5.72083 2.9146 5.20865 3.70287C4.69648 4.49157 4.44029 5.35345 4.44029 6.29002H15.5443C15.5443 5.35367 15.2881 4.49175 14.7759 3.70287C14.2637 2.9146 13.5793 2.30075 12.7232 1.85999ZM7.79534 4.14699C7.70316 4.23939 7.59307 4.28537 7.4651 4.28537C7.33688 4.28537 7.22902 4.23939 7.14104 4.14699C7.05305 4.05503 7.00906 3.94537 7.00906 3.81697C7.00906 3.689 7.05305 3.57912 7.14104 3.48695C7.22902 3.39499 7.33713 3.34901 7.4651 3.34901C7.59307 3.34901 7.70316 3.39499 7.79534 3.48695C7.8873 3.57934 7.9335 3.689 7.9335 3.81697C7.93324 3.94516 7.88708 4.05503 7.79534 4.14699ZM12.8552 4.14699C12.767 4.23939 12.6589 4.28537 12.5311 4.28537C12.4029 4.28537 12.2928 4.23939 12.2008 4.14699C12.1087 4.05503 12.0627 3.94537 12.0627 3.81697C12.0627 3.689 12.1087 3.57912 12.2008 3.48695C12.2928 3.39499 12.4029 3.34901 12.5311 3.34901C12.6591 3.34901 12.7669 3.39499 12.8552 3.48695C12.9432 3.57934 12.9871 3.689 12.9871 3.81697C12.9871 3.94516 12.9432 4.05503 12.8552 4.14699ZM4.48796 14.7169C4.48796 15.0854 4.61594 15.3973 4.87191 15.6533C5.12811 15.9093 5.44003 16.0373 5.80827 16.0373H6.69666L6.70883 18.7626C6.70883 19.1068 6.82886 19.399 7.06891 19.6391C7.30896 19.8792 7.59723 19.9992 7.93321 19.9992C8.27717 19.9992 8.56938 19.8792 8.80946 19.6391C9.04955 19.399 9.16957 19.1068 9.16957 18.7626V16.0375H10.8261V18.7626C10.8261 19.1068 10.9461 19.399 11.1862 19.6391C11.4263 19.8792 11.7183 19.9992 12.0625 19.9992C12.4064 19.9992 12.6986 19.8792 12.9387 19.6391C13.1788 19.399 13.2988 19.1068 13.2988 18.7626V16.0375H14.1992C14.5593 16.0375 14.8672 15.9095 15.1236 15.6535C15.3796 15.3976 15.5076 15.0856 15.5076 14.7172V6.72176H4.48796V14.7169ZM17.213 6.49388C16.8767 6.49388 16.5887 6.61214 16.3486 6.848C16.1086 7.08429 15.9885 7.37454 15.9885 7.71826V12.8802C15.9885 13.2248 16.1085 13.5166 16.3486 13.7567C16.5887 13.9968 16.8769 14.1168 17.213 14.1168C17.5569 14.1168 17.8491 13.9968 18.0892 13.7567C18.3293 13.5166 18.4493 13.2248 18.4493 12.8802V7.71826C18.4493 7.37451 18.3293 7.08429 18.0892 6.848C17.8491 6.61214 17.5569 6.49388 17.213 6.49388Z" fill="#E21A1A"/><defs><clipPath id="clip0_213_5071"><path fill="#fff" d="M0 0H20V20H0z"/></clipPath></defs></svg>