<svg width="21" height="20" viewBox="0 0 21 20" fill="none" xmlns="http://www.w3.org/2000/svg"><path d="M15.3627 10.0941C15.3903 12.9694 17.9714 13.9263 18 13.9384C17.9782 14.0059 17.5876 15.302 16.6402 16.6408C15.8211 17.7982 14.9711 18.9514 13.6321 18.9753C12.3164 18.9987 11.8933 18.2209 10.389 18.2209C8.88524 18.2209 8.41518 18.9514 7.16969 18.9987C5.87719 19.0461 4.89293 17.7472 4.06715 16.5939C2.37971 14.235 1.09015 9.92824 2.8217 7.02108C3.68189 5.57737 5.21913 4.66316 6.88766 4.63971C8.15687 4.6163 9.35481 5.46535 10.1307 5.46535C10.9062 5.46535 12.3619 4.4443 13.8924 4.59425C14.533 4.62004 16.3315 4.84449 17.4863 6.47893C17.3932 6.53471 15.3404 7.69024 15.3627 10.0941ZM12.8899 3.03364C13.5761 2.23049 14.038 1.11245 13.912 0C12.9229 0.0384387 11.7268 0.637308 11.0174 1.44001C10.3816 2.15084 9.82474 3.28856 9.97498 4.37899C11.0775 4.46146 12.2037 3.83729 12.8899 3.03364Z" fill="#1F4F62"/></svg>