<svg width="20" height="20" viewBox="0 0 20 20" fill="none" xmlns="http://www.w3.org/2000/svg"><path d="M15.3627 10.6254C15.3903 13.652 17.9714 14.6592 18 14.672C17.9782 14.743 17.5876 16.1073 16.6402 17.5166C15.8211 18.735 14.9711 19.9488 13.6321 19.974C12.3164 19.9986 11.8933 19.1799 10.389 19.1799C8.88524 19.1799 8.41518 19.9489 7.16969 19.9987C5.87719 20.0485 4.89293 18.6812 4.06715 17.4673C2.37971 14.9842 1.09015 10.4508 2.8217 7.39061C3.68189 5.87092 5.21913 4.90858 6.88766 4.88391C8.15687 4.85927 9.35481 5.753 10.1307 5.753C10.9062 5.753 12.3619 4.67821 13.8924 4.83605C14.533 4.86319 16.3315 5.09947 17.4863 6.81993C17.3932 6.87864 15.3404 8.09499 15.3627 10.6254V10.6254ZM12.8899 3.1933C13.5761 2.34789 14.038 1.171 13.912 0C12.9229 0.0404617 11.7268 0.670851 11.0174 1.5158C10.3816 2.26404 9.82474 3.46164 9.97498 4.60946C11.0775 4.69628 12.2037 4.03925 12.8899 3.1933Z" fill="#E21A1A"/><defs><clipPath id="clip0_1_866"><path fill="#fff" d="M0 0H20V20H0z"/></clipPath></defs></svg>