<svg width="140" height="140" viewBox="0 0 140 140" fill="none" xmlns="http://www.w3.org/2000/svg"><path d="M0 33.6C0 21.8389 0 15.9583 2.28886 11.4662C4.3022 7.5148 7.5148 4.3022 11.4662 2.28886C15.9583 0 21.8389 0 33.6 0H106.4C118.161 0 124.042 0 128.534 2.28886C132.485 4.3022 135.698 7.5148 137.711 11.4662C140 15.9583 140 21.8389 140 33.6V106.4C140 118.161 140 124.042 137.711 128.534C135.698 132.485 132.485 135.698 128.534 137.711C124.042 140 118.161 140 106.4 140H33.6C21.8389 140 15.9583 140 11.4662 137.711C7.5148 135.698 4.3022 132.485 2.28886 128.534C0 124.042 0 118.161 0 106.4V33.6Z" fill="#fff"/><g opacity=".7" fill="#657F91"><path d="M124.126 65.1045L127.073 65.1035L128.466 97.4339H123.078L124.126 65.1045Z"/><circle cx="110.609" cy="61.913" r="7.823"/><circle cx="114.667" cy="55.646" r="7.823"/><circle cx="122.499" cy="59.429" r="7.823"/><circle cx="134.981" cy="65.748" r="4.614"/><circle cx="142.911" cy="63.47" r="5.853"/><circle cx="135.835" cy="56.687" r="10.05"/><circle cx="126.42" cy="50.818" r="10.642"/><path d="M133.513 65.1463C132.527 68.0479 128.224 69.5171 126.196 69.889C124.636 70.3774 122.453 71.3659 126.196 71.4127C129.939 71.4595 133.613 68.0002 134.983 66.2647C134.904 64.6829 134.5 62.2447 133.513 65.1463Z"/><path d="M115.49 66.6245C116.969 70.9746 125.038 72.6445 126.268 71.4138C126.485 72.2802 126.774 73.9522 125.291 73.9522C119.679 73.9522 115.879 70.3554 113.826 67.7535C113.944 65.382 114.012 62.2744 115.49 66.6245Z"/></g><g opacity=".5" fill="#657F91"><path d="M98.0896 85.0299L100.012 85.0293L100.921 106.118H97.4062L98.0896 85.0299Z"/><circle cx="92.285" cy="82.775" r="3.316"/><circle cx="93.947" cy="77.59" r="5.103"/><circle cx="97.752" cy="81.328" r="5.103"/><circle cx="104.22" cy="80.029" r="5.392"/><circle cx="99.028" cy="74.202" r="6.942"/></g><g opacity=".3" fill="#657F91"><path d="M27.6233 88.4449L26.5064 88.4544C26.4842 88.02 26.4596 87.5539 26.4374 87.056C26.3905 86.1238 26.3437 85.0838 26.2968 83.9708L27.2042 83.9961C27.1006 82.4456 27.4137 78.5327 27.4137 78.5327H26.0823C26.0478 77.5719 26.0108 76.589 25.9763 75.5902C25.9443 74.6674 25.9122 73.7352 25.8802 72.7998H26.9403C26.9403 72.7998 26.6248 68.0118 26.9403 66.5278H25.6755C25.6484 65.6368 25.6213 64.7648 25.5942 63.9182C25.5646 63.0018 25.5375 62.1171 25.5128 61.2673L26.6765 61.2673C26.6765 61.2673 26.0996 57.4908 26.3092 55.6707H25.3476C25.2909 53.7365 25.2613 52.5664 25.2613 52.5664L-9.24648 52.9691L-9.21443 55.6675H-10.4521C-10.4521 55.6675 -10.1883 58.5689 -10.4004 61.2641H-9.15525L-9.14046 62.5325L-9.09608 66.5246H-10.4004C-10.4004 66.5246 -10.033 69.8984 -10.5039 72.7966H-9.02704L-9.02211 73.3135L-8.96294 78.5296H-10.2943C-10.1883 79.8106 -10.1365 83.0481 -10.1365 83.0481L-8.91116 83.0798L-8.89637 84.3418L-8.84952 88.7017L-10.1883 88.7112C-10.1883 88.7112 -10.0848 93.0966 -10.3461 94.5774H27.6233C27.6233 94.5837 27.1499 89.8591 27.6233 88.4449ZM23.7228 61.708L23.7179 62.1266L23.6957 63.8864L21.0058 63.8072L20.6581 63.7977L20.631 61.8285L23.7228 61.708ZM23.5823 64.7045L23.6119 65.1231L23.7376 66.9146L21.0378 66.8893L20.6976 66.8861L20.6187 64.8282L23.5823 64.7045ZM11.9991 61.6763L12.0287 62.0949L12.1569 63.8833L9.45716 63.8579L9.11938 63.8547L9.04048 61.7968L11.9991 61.6763ZM-4.58166 61.7683L-4.57673 62.1805L-4.55454 63.8864L-7.24445 63.8611L-7.5921 63.8579L-7.61922 61.8285L-4.58166 61.7683ZM-4.52989 87.9788L-4.54222 89.672L-7.23952 89.6879L-7.57977 89.691L-7.64634 87.5729H-4.52249L-4.52989 87.9788ZM-4.58166 76.4368L-4.57673 76.849L-4.55454 78.5549L-7.24445 78.5296L-7.5921 78.5264L-7.61922 76.497L-4.58166 76.4368ZM-7.62168 73.38L-4.58413 73.323L-4.5792 73.732L-4.55701 75.4379L-7.24692 75.4126L-7.59456 75.4094L-7.62168 73.38ZM-4.58166 84.4306L-4.57673 84.8396L-4.55454 86.5455L-7.24445 86.5202L-7.5921 86.517L-7.61922 84.4876L-4.58166 84.4306ZM-4.52989 65.3165L-4.54222 67.0098L-7.23952 67.0256L-7.57977 67.0288L-7.64634 64.9106H-4.52249L-4.52989 65.3165ZM-1.81532 89.5769L-2.16543 89.5737L-2.19008 87.5444L0.847468 87.4841L0.8524 87.8963L0.872125 89.6023L-1.81532 89.5769ZM0.899246 84.8364L0.886918 86.5297L-1.81286 86.5455L-2.1531 86.5487L-2.21967 84.4306H0.90171L0.899246 84.8364ZM0.899246 76.8426L0.886918 78.5391L-1.81286 78.5549L-2.1531 78.5581L-2.21967 76.4399H0.90171L0.899246 76.8426ZM0.847468 73.453L0.8524 73.862L0.872125 75.568L-1.81532 75.5426L-2.16543 75.5394L-2.19008 73.5101L0.847468 73.453ZM-2.19008 64.8821L0.847468 64.8219L0.8524 65.2341L0.872125 66.94L-1.81532 66.9146L-2.16543 66.9115L-2.19008 64.8821ZM0.899246 62.171L0.886918 63.8674L-1.81286 63.8833H-2.1531L-2.21967 61.7651H0.90171L0.899246 62.171ZM6.38015 87.8741L6.36043 89.634L3.67052 89.5547L3.32041 89.5452L3.29329 87.5761L6.38509 87.4556L6.38015 87.8741ZM6.40728 84.7825L6.38755 86.5202L3.66805 86.5455L3.32534 86.5487L3.27357 84.4306L6.41714 84.3703L6.40728 84.7825ZM6.40728 76.7887L6.38755 78.5264L3.66805 78.5549L3.32534 78.5581L3.27357 76.4399L6.41714 76.3797L6.40728 76.7887ZM6.40728 73.7542L6.38755 75.4887L3.66805 75.514L3.32534 75.5172L3.27357 73.3991L6.41714 73.3388L6.40728 73.7542ZM3.29576 64.9138L6.38755 64.7933L6.38262 65.2119L6.3629 66.9717L3.67299 66.8924L3.32288 66.8798L3.29576 64.9138ZM6.40728 62.1203L6.38755 63.8579L3.66805 63.8833L3.32534 63.8864L3.27357 61.7683L6.41714 61.708L6.40728 62.1203ZM12.1643 87.8678L12.1421 89.6054L9.42017 89.6308L9.075 89.634L9.02322 87.5158L12.1643 87.4556V87.8678ZM11.9991 76.348L12.0287 76.7665L12.1569 78.5549L9.45716 78.5296L9.11938 78.5264L9.04048 76.4685L11.9991 76.348ZM9.06513 73.5354L12.1027 73.4752L12.1076 73.8874L12.1298 75.5933L9.44236 75.568L9.09226 75.5648L9.06513 73.5354ZM11.9991 84.3386L12.0287 84.7572L12.1569 86.5487L9.45716 86.5233L9.11938 86.5202L9.04048 84.4623L11.9991 84.3386ZM12.1643 65.2055L12.1421 66.94L9.42017 66.9685L9.075 66.9717L9.02322 64.8536L12.1643 64.7933V65.2055ZM17.7562 87.8678V89.4849H15.3769H15.0268L15.0022 87.5158L17.7562 87.4556V87.8678ZM17.9214 84.7889L17.8992 86.5487L15.2117 86.4694L14.8616 86.4599L14.8345 84.4908L17.9238 84.3735L17.9214 84.7889ZM17.9214 76.7951L17.8992 78.5549L15.2117 78.4757L14.8616 78.4661L14.8345 76.497L17.9238 76.3765L17.9214 76.7951ZM17.9214 73.9635L17.8992 75.7233L15.2117 75.6441L14.8616 75.6345L14.8345 73.6654L17.9238 73.5449L17.9214 73.9635ZM15.0046 64.8536L17.7587 64.7933V65.2055V66.8227H15.3794H15.0293L15.0046 64.8536ZM17.9214 62.1266L17.8992 63.8864L15.2117 63.8072L14.8616 63.7977L14.8345 61.8285L17.9238 61.7112L17.9214 62.1266ZM21.0378 89.5484L20.6976 89.5452L20.6187 87.4841L23.5798 87.3636L23.6094 87.7822L23.7351 89.5706L21.0378 89.5484ZM23.7228 84.3703L23.7179 84.7889L23.6957 86.5487L21.0058 86.4694L20.6581 86.4599L20.631 84.4908L23.7228 84.3703ZM20.6359 76.497L23.7253 76.3765L23.7203 76.7951L23.6982 78.5549L21.0082 78.4757L20.6606 78.4661L20.6359 76.497ZM23.7376 73.9064L23.7228 75.5997L21.0255 75.6187L20.6828 75.6219L20.6162 73.5037H23.7401L23.7376 73.9064Z"/><path d="M27.6233 54.5445L26.5064 54.554C26.4842 54.1196 26.4596 53.6535 26.4374 53.1557C26.3905 52.2234 26.3437 51.1834 26.2968 50.0704L27.2042 50.0958C27.1006 48.5452 27.4137 44.6323 27.4137 44.6323H26.0823C26.0478 43.6716 26.0108 42.6886 25.9763 41.6898C25.9443 40.767 25.9122 39.8348 25.8802 38.8994H26.9403C26.9403 38.8994 26.6248 34.1114 26.9403 32.6274L25.6755 32.6274C25.6484 31.7364 25.6213 30.8644 25.5942 30.0178C25.5646 29.1014 25.5374 28.2167 25.5128 27.3669L26.6765 27.3669C26.6765 27.3669 26.0996 23.5904 26.3092 21.7703H25.3476C25.2909 19.8361 25.2613 18.666 25.2613 18.666L-9.24648 19.0687L-9.21443 21.7671H-10.4521C-10.4521 21.7671 -10.1883 24.6685 -10.4004 27.3637H-9.15525L-9.14046 28.6321L-9.09608 32.6242H-10.4004C-10.4004 32.6242 -10.033 35.998 -10.5039 38.8962H-9.02704L-9.02211 39.4131L-8.96294 44.6292H-10.2943C-10.1883 45.9102 -10.1365 49.1477 -10.1365 49.1477L-8.91116 49.1794L-8.89637 50.4414L-8.84952 54.8013L-10.1883 54.8109C-10.1883 54.8109 -10.0848 59.1962 -10.3461 60.677L27.6233 60.677C27.6233 60.6833 27.1499 55.9587 27.6233 54.5445ZM23.7228 27.8077L23.7179 28.2262L23.6957 29.9861L21.0058 29.9068L20.6581 29.8973L20.631 27.9281L23.7228 27.8077ZM23.5823 30.8041L23.6119 31.2227L23.7376 33.0142L21.0378 32.9889L20.6976 32.9857L20.6187 30.9278L23.5823 30.8041ZM11.9991 27.7759L12.0287 28.1945L12.1569 29.9829L9.45716 29.9575L9.11937 29.9543L9.04048 27.8964L11.9991 27.7759ZM-4.58166 27.8679L-4.57673 28.2801L-4.55454 29.9861L-7.24445 29.9607L-7.5921 29.9575L-7.61922 27.9281L-4.58166 27.8679ZM-4.52989 54.0784L-4.54222 55.7716L-7.23952 55.7875L-7.57977 55.7907L-7.64634 53.6725H-4.52249L-4.52989 54.0784ZM-4.58166 42.5364L-4.57673 42.9486L-4.55454 44.6545L-7.24445 44.6292L-7.5921 44.626L-7.61922 42.5966L-4.58166 42.5364ZM-7.62168 39.4797L-4.58413 39.4226L-4.5792 39.8316L-4.55701 41.5376L-7.24692 41.5122L-7.59456 41.509L-7.62168 39.4797ZM-4.58166 50.5302L-4.57673 50.9392L-4.55454 52.6451L-7.24445 52.6198L-7.5921 52.6166L-7.61922 50.5872L-4.58166 50.5302ZM-4.52989 31.4161L-4.54222 33.1094L-7.23952 33.1252L-7.57977 33.1284L-7.64634 31.0102H-4.52249L-4.52989 31.4161ZM-1.81532 55.6765L-2.16543 55.6733L-2.19008 53.644L0.847467 53.5837L0.852399 53.9959L0.872124 55.7019L-1.81532 55.6765ZM0.899245 50.936L0.886917 52.6293L-1.81286 52.6451L-2.1531 52.6483L-2.21967 50.5302H0.901709L0.899245 50.936ZM0.899245 42.9423L0.886917 44.6387L-1.81286 44.6545L-2.1531 44.6577L-2.21967 42.5396H0.901709L0.899245 42.9423ZM0.847467 39.5526L0.852399 39.9616L0.872124 41.6676L-1.81532 41.6422L-2.16543 41.639L-2.19008 39.6097L0.847467 39.5526ZM-2.19008 30.9817L0.847467 30.9215L0.852399 31.3337L0.872124 33.0396L-1.81532 33.0142L-2.16543 33.0111L-2.19008 30.9817ZM0.899245 28.2706L0.886917 29.967L-1.81286 29.9829H-2.1531L-2.21967 27.8647H0.901709L0.899245 28.2706ZM6.38015 53.9737L6.36043 55.7336L3.67052 55.6543L3.32041 55.6448L3.29329 53.6757L6.38509 53.5552L6.38015 53.9737ZM6.40727 50.8821L6.38755 52.6198L3.66805 52.6451L3.32534 52.6483L3.27357 50.5302L6.41714 50.4699L6.40727 50.8821ZM6.40727 42.8884L6.38755 44.626L3.66805 44.6545L3.32534 44.6577L3.27357 42.5396L6.41714 42.4793L6.40727 42.8884ZM6.40727 39.8538L6.38755 41.5883L3.66805 41.6137L3.32534 41.6168L3.27357 39.4987L6.41714 39.4384L6.40727 39.8538ZM3.29576 31.0134L6.38755 30.8929L6.38262 31.3115L6.3629 33.0713L3.67298 32.992L3.32288 32.9794L3.29576 31.0134ZM6.40727 28.2199L6.38755 29.9575L3.66805 29.9829L3.32534 29.9861L3.27357 27.8679L6.41714 27.8077L6.40727 28.2199ZM12.1643 53.9674L12.1421 55.705L9.42017 55.7304L9.075 55.7336L9.02322 53.6154L12.1643 53.5552V53.9674ZM11.9991 42.4476L12.0287 42.8662L12.1569 44.6545L9.45716 44.6292L9.11937 44.626L9.04048 42.5681L11.9991 42.4476ZM9.06513 39.635L12.1027 39.5748L12.1076 39.987L12.1298 41.6929L9.44236 41.6676L9.09225 41.6644L9.06513 39.635ZM11.9991 50.4382L12.0287 50.8568L12.1569 52.6483L9.45716 52.6229L9.11937 52.6198L9.04048 50.5619L11.9991 50.4382ZM12.1643 31.3051L12.1421 33.0396L9.42017 33.0681L9.075 33.0713L9.02322 30.9532L12.1643 30.8929V31.3051ZM17.7562 53.9674V55.5845H15.3769H15.0268L15.0022 53.6154L17.7562 53.5552V53.9674ZM17.9214 50.8885L17.8992 52.6483L15.2117 52.569L14.8616 52.5595L14.8345 50.5904L17.9238 50.4731L17.9214 50.8885ZM17.9214 42.8947L17.8992 44.6545L15.2117 44.5753L14.8616 44.5657L14.8345 42.5966L17.9238 42.4761L17.9214 42.8947ZM17.9214 40.0631L17.8992 41.8229L15.2117 41.7437L14.8616 41.7342L14.8345 39.765L17.9238 39.6445L17.9214 40.0631ZM15.0046 30.9532L17.7587 30.8929V31.3051V32.9223H15.3794H15.0293L15.0046 30.9532ZM17.9214 28.2262L17.8992 29.9861L15.2117 29.9068L14.8616 29.8973L14.8345 27.9281L17.9238 27.8108L17.9214 28.2262ZM21.0378 55.648L20.6976 55.6448L20.6187 53.5837L23.5798 53.4632L23.6094 53.8818L23.7351 55.6702L21.0378 55.648ZM23.7228 50.4699L23.7179 50.8885L23.6957 52.6483L21.0058 52.569L20.6581 52.5595L20.631 50.5904L23.7228 50.4699ZM20.6359 42.5966L23.7253 42.4761L23.7203 42.8947L23.6982 44.6545L21.0082 44.5753L20.6606 44.5657L20.6359 42.5966ZM23.7376 40.006L23.7228 41.6993L21.0255 41.7183L20.6828 41.7215L20.6162 39.6033H23.7401L23.7376 40.006Z"/></g><path d="M68.8533 72.4111C68.8275 72.3982 68.7953 72.3918 68.7695 72.3789C68.7953 72.3918 68.8275 72.4047 68.8533 72.4111Z" fill="#657F91"/><path d="M36.3961 60.0412C36.3769 60.0348 36.3512 60.022 36.332 60.0156C36.3512 60.0284 36.3769 60.0348 36.3961 60.0412Z" fill="#657F91"/><path d="M87.5654 81.789H84.0074C84.0396 80.4419 84.407 65.6298 84.652 58.127C84.6907 56.9797 84.7229 56 84.7551 55.2716L85.8895 55.2781L85.593 52.6031L52.8105 45.5L18.0104 52.7062V54.8849L19.0353 54.8913C19.0417 55.046 19.0482 55.22 19.0611 55.4199C19.2738 59.848 19.9893 75.1178 20.0859 81.7955H16.3281C16.7213 84.8636 17.0178 93.9648 17.0178 93.9648H87.4623C87.2689 91.1932 87.5654 81.789 87.5654 81.789ZM74.6548 60.5377C74.6548 60.5377 74.7515 59.1454 75.8472 59.2163C76.35 59.2486 76.6078 59.5193 76.7432 59.7964C76.7367 59.79 76.7174 59.79 76.7109 59.7836C76.8656 60.1123 76.8463 60.4539 76.8463 60.4539L77.0397 63.7734L75.1124 63.825V63.8443L74.6226 63.8572L74.6548 60.5377ZM43.3612 59.3904C43.8639 59.3904 44.1604 59.6611 44.3345 59.9834C44.3216 59.9769 44.3151 59.9769 44.3087 59.9705C44.5601 60.4475 44.5536 61.0276 44.5536 61.0276L44.4247 63.9732H42.7553V63.9861H42.2976V64.057L42.1687 61.0082C42.1687 61.0211 42.1043 59.3904 43.3612 59.3904ZM25.6936 86.1592L28.2977 86.0367L28.3041 86.591L28.317 87.4612H26.1448H25.7581L25.6936 86.1592ZM26.3253 91.5928L25.9321 91.6122L25.7774 88.2347H28.3235L28.3299 88.7632L28.3621 91.4897L26.3253 91.5928ZM28.6071 77.3093H26.3833V77.3286H25.8999V74.2025C25.8999 74.2025 25.771 72.8489 27.1568 72.7522C27.8852 72.7006 28.2848 73.0616 28.4975 73.4161C28.4846 73.4097 28.4717 73.4097 28.4653 73.4032C28.6586 73.7191 28.7038 74.0284 28.7038 74.0284L28.6071 77.3093ZM27.2342 63.7412V63.7541H26.7701L26.6605 60.4668C26.6605 60.4668 26.5509 59.081 27.7885 59.0488C28.3235 59.0359 28.62 59.313 28.7811 59.6289C28.7747 59.6224 28.7618 59.6224 28.7553 59.616C28.9616 60.0285 28.9423 60.5119 28.9423 60.5119L29.0776 63.7347H27.2342V63.7412ZM33.6089 88.7696L33.4542 91.6122L31.6043 91.5155L31.2047 91.4962L31.1338 88.2347H33.6411L33.6089 88.7696ZM33.7249 86.4105L33.6669 87.4676H31.527H31.1209L31.0822 85.9271L33.7507 85.8691L33.7249 86.4105ZM34.4275 64.0893V64.1602L34.2986 61.1114C34.2986 61.1114 34.2341 59.4871 35.491 59.4871C35.9938 59.4871 36.2903 59.7578 36.4643 60.0801C36.4514 60.0736 36.445 60.0736 36.4321 60.0672C36.6899 60.5441 36.6835 61.1307 36.6835 61.1307L36.5546 64.0764H34.8916V64.0957H34.4275V64.0893ZM35.1236 77.4253L35.0141 74.138C35.0141 74.138 34.9045 72.7522 36.142 72.72C36.6835 72.7071 36.9735 72.9843 37.1347 73.3001C37.1282 73.2936 37.1153 73.2936 37.1024 73.2872C37.3087 73.6997 37.2894 74.1831 37.2894 74.1831L37.4247 77.406H35.5877V77.4253H35.1236ZM36.1227 86.0431L38.9072 85.8691L38.9137 86.4299L38.9266 87.4676H36.6126H36.2387L36.1227 86.0431ZM36.9091 91.6057L36.5352 91.6122L36.271 88.2347H38.933L38.9395 88.7632L38.9717 91.5477L36.9091 91.6057ZM41.8078 86.2236L44.7083 86.1076L44.7276 86.6555L44.7534 87.4676H42.2783H41.9109L41.8078 86.2236ZM42.5941 91.6057L42.2203 91.6122L41.9496 88.2347H44.7728L44.7921 88.7632L44.8888 91.5477L42.5941 91.6057ZM44.8372 77.0966H42.8971V77.1159H42.4201L42.3879 74.1122C42.3879 74.1122 42.4523 72.5202 43.6448 72.4106C44.1475 72.3655 44.4569 72.6426 44.6439 72.9842C44.631 72.9778 44.6245 72.9778 44.6116 72.9714C44.863 73.429 44.9017 73.9898 44.9017 73.9898L44.8372 77.0966ZM50.3934 63.9668L50.4256 60.6473C50.4256 60.6473 50.5223 59.2615 51.618 59.3259C52.1272 59.3581 52.3786 59.6289 52.514 59.906C52.5075 59.906 52.4946 59.8996 52.4882 59.8996C52.6429 60.2283 52.6236 60.5635 52.6236 60.5635L52.8169 63.883L50.8897 63.9346V63.9539L50.3934 63.9668ZM51.5729 76.9161H51.1024L50.9928 73.6288C50.9928 73.6288 50.8832 72.243 52.1208 72.2108C52.6558 72.1979 52.9523 72.475 53.1134 72.7909C53.1005 72.7844 53.0941 72.7844 53.0812 72.778C53.2875 73.1905 53.2746 73.6739 53.2746 73.6739L53.4099 76.8968H51.5665V76.9161H51.5729ZM58.3022 63.8701L58.2699 60.86C58.2699 60.86 58.3344 59.2679 59.5268 59.1583C60.0296 59.1132 60.339 59.3968 60.5259 59.732C60.513 59.7255 60.5066 59.7255 60.4937 59.7191C60.7451 60.1767 60.7838 60.7375 60.7838 60.7375L60.7193 63.8508H58.7792V63.8701H58.3022ZM59.1917 76.4327L59.1594 73.4226C59.1594 73.4226 59.2239 71.8305 60.4164 71.7209C60.9191 71.6758 61.2285 71.9594 61.4154 72.2946C61.409 72.2881 61.3961 72.2881 61.3832 72.2817C61.6346 72.7393 61.6668 73.3001 61.6668 73.3001L61.6023 76.4133H59.6622V76.4262H59.1917V76.4327ZM60.6226 85.766L63.2267 85.65L63.2331 86.2043L63.246 87.0744H61.0738H60.6806L60.6226 85.766ZM61.2478 91.1997L60.8547 91.219L60.7 87.8415H63.246L63.2524 88.3765L63.2847 91.103L61.2478 91.1997ZM67.1778 59.081C67.9062 59.0294 68.3058 59.3904 68.5185 59.7384C68.5121 59.732 68.4992 59.732 68.4863 59.7255C68.6797 60.0414 68.7248 60.3572 68.7248 60.3572L68.6281 63.6445H66.4044V63.6638H65.9209V60.5377C65.9145 60.5313 65.7856 59.1777 67.1778 59.081ZM68.5379 88.37L68.3832 91.2125L66.5333 91.1159L66.1272 91.0901L66.0563 87.835H68.5636L68.5379 88.37ZM68.6474 86.0109L68.5894 87.068H66.4495H66.0434L66.0112 85.5275L68.6732 85.4695L68.6474 86.0109ZM69.0084 76.4391H67.339V76.4585H66.8749V76.5294L66.746 73.4806C66.746 73.4806 66.6815 71.8563 67.9384 71.8563C68.4476 71.8563 68.7377 72.127 68.9182 72.4493C68.9053 72.4428 68.8988 72.4428 68.8859 72.4364C69.1373 72.9133 69.1309 73.4999 69.1309 73.4999L69.0084 76.4391ZM71.0452 85.65L73.8297 85.4759L73.8362 86.0367L73.8491 87.0809H71.5286H71.1548L71.0452 85.65ZM71.8316 91.2061L71.4577 91.2125L71.1935 87.835H73.8491L73.8555 88.37L73.8878 91.1545L71.8316 91.2061ZM74.5259 76.2264V73.1003C74.5259 73.1003 74.397 71.7467 75.7828 71.65C76.5111 71.5984 76.9108 71.9594 77.1235 72.3075C77.0655 72.2752 77.0074 72.2494 76.9494 72.2237C77.001 72.243 77.0461 72.2688 77.0912 72.2946C77.2846 72.6104 77.3297 72.9198 77.3297 72.9198L77.233 76.2071H75.0093V76.22H74.5259V76.2264ZM76.7367 85.824L79.6373 85.708L79.6566 86.2558L79.6824 87.068H77.2073H76.8334L76.7367 85.824ZM77.5167 91.2061L77.1428 91.2125L76.8721 87.835H79.6953L79.7146 88.37L79.8113 91.1545L77.5167 91.2061Z" fill="#657F91"/><path fill="#657F91" d="M-19.836 93.334H149.33100000000002V140.001H-19.836z"/><path transform="rotate(-90 0 98)" fill="#657F91" d="M0 98H4.667V238H0z"/><path d="M50.168 85.8155C50.168 84.8128 50.9808 84 51.9835 84H53.0846H54.1858C55.1885 84 56.0013 84.8128 56.0013 85.8155V93.3333H50.168V85.8155Z" fill="#657F91"/><defs><clipPath id="clip0_79_3844"><path d="M0 33.6C0 21.8389 0 15.9583 2.28886 11.4662C4.3022 7.5148 7.5148 4.3022 11.4662 2.28886C15.9583 0 21.8389 0 33.6 0H106.4C118.161 0 124.042 0 128.534 2.28886C132.485 4.3022 135.698 7.5148 137.711 11.4662C140 15.9583 140 21.8389 140 33.6V106.4C140 118.161 140 124.042 137.711 128.534C135.698 132.485 132.485 135.698 128.534 137.711C124.042 140 118.161 140 106.4 140H33.6C21.8389 140 15.9583 140 11.4662 137.711C7.5148 135.698 4.3022 132.485 2.28886 128.534C0 124.042 0 118.161 0 106.4V33.6Z" fill="#fff"/></clipPath></defs></svg>