<svg width="140" height="140" viewBox="0 0 140 140" fill="none" xmlns="http://www.w3.org/2000/svg"><path d="M0 33.6C0 21.8389 0 15.9583 2.28886 11.4662C4.3022 7.5148 7.5148 4.3022 11.4662 2.28886C15.9583 0 21.8389 0 33.6 0H106.4C118.161 0 124.042 0 128.534 2.28886C132.485 4.3022 135.698 7.5148 137.711 11.4662C140 15.9583 140 21.8389 140 33.6V106.4C140 118.161 140 124.042 137.711 128.534C135.698 132.485 132.485 135.698 128.534 137.711C124.042 140 118.161 140 106.4 140H33.6C21.8389 140 15.9583 140 11.4662 137.711C7.5148 135.698 4.3022 132.485 2.28886 128.534C0 124.042 0 118.161 0 106.4V33.6Z" fill="#fff"/><path d="M79.4141 46.7613V38.2171L107.384 36.6465L134.15 38.4193V47.6859L79.4141 46.7613Z" fill="#fff"/><path d="M119.173 64.7168H93.957V94.7352H119.173V64.7168Z" fill="#657F91" stroke="#fff" stroke-width=".623" stroke-miterlimit="10"/><path d="M112.717 74.4258H100.418V94.7215H112.717V74.4258Z" fill="#fff"/><path d="M106.569 77.6621H101.852V94.73H106.569V77.6621Z" fill="#657F91" stroke="#fff" stroke-width=".623" stroke-miterlimit="10"/><path d="M111.284 77.6641H106.566V94.732H111.284V77.6641Z" fill="#657F91" stroke="#fff" stroke-width=".623" stroke-miterlimit="10"/><path d="M93.9646 64.7109H70.7539V94.7294H93.9646V64.7109Z" fill="#657F91" stroke="#fff" stroke-width=".598" stroke-miterlimit="10"/><path d="M88.0229 89.9929H76.7031V80.0989C76.7031 76.9702 79.2363 74.4316 82.363 74.4316C85.4877 74.4316 88.0229 76.9681 88.0229 80.0989V89.9929Z" fill="#fff"/><path d="M70.9467 64.7109H51.2812V94.7294H70.9467V64.7109Z" fill="#657F91" stroke="#fff" stroke-width=".55" stroke-miterlimit="10"/><path d="M66.3564 89.9909H55.8672V79.682C55.8672 76.7823 58.2148 74.4316 61.1107 74.4316C64.0067 74.4316 66.3543 76.7823 66.3543 79.682V89.9909H66.3564Z" fill="#fff"/><path d="M51.8664 64.7109H36.7891V94.7294H51.8664V64.7109Z" fill="#657F91" stroke="#fff" stroke-width=".482" stroke-miterlimit="10"/><path d="M48.3492 89.9929H40.3086V78.4582C40.3086 76.2354 42.108 74.4316 44.3299 74.4316C46.5498 74.4316 48.3513 76.2334 48.3513 78.4582V89.9929H48.3492Z" fill="#fff"/><path d="M36.7331 64.7109H26.1367V94.7294H36.7331V64.7109Z" fill="#657F91" stroke="#fff" stroke-width=".404" stroke-miterlimit="10"/><path d="M34.261 89.9909H28.6094V77.2612C28.6094 75.6988 29.8749 74.4316 31.4352 74.4316C32.9954 74.4316 34.261 75.6988 34.261 77.2612V89.9909Z" fill="#fff"/><path d="M26.1385 64.7109H18.0156V94.7294H26.1385V64.7109Z" fill="#657F91" stroke="#fff" stroke-width=".354" stroke-miterlimit="10"/><path d="M24.2506 89.9909H19.918V76.6007C19.918 75.4016 20.8888 74.4316 22.0843 74.4316C23.2818 74.4316 24.2506 75.4037 24.2506 76.6007V89.9909V89.9909Z" fill="#fff"/><path d="M82.3594 70.8633V91.7327" stroke="#657F91" stroke-width="1.246" stroke-miterlimit="10"/><path d="M61.1133 70.8633V91.7327" stroke="#657F91" stroke-width="1.246" stroke-miterlimit="10"/><path d="M44.332 70.8633V91.7327" stroke="#657F91" stroke-width="1.246" stroke-miterlimit="10"/><path d="M31.4414 70.8633V91.7327" stroke="#657F91" stroke-width="1.246" stroke-miterlimit="10"/><path d="M22.0742 70.8633V91.7327" stroke="#657F91" stroke-width="1.246" stroke-miterlimit="10"/><path d="M25.0756 79.8359H19.0859" stroke="#657F91" stroke-width="1.246" stroke-miterlimit="10"/><path d="M34.4351 79.8359H28.4453" stroke="#657F91" stroke-width="1.246" stroke-miterlimit="10"/><path d="M50.2973 79.8359H38.3594" stroke="#657F91" stroke-width="1.246" stroke-miterlimit="10"/><path d="M67.0749 79.8359H55.1367" stroke="#657F91" stroke-width="1.246" stroke-miterlimit="10"/><path d="M88.3249 79.8359H76.3867" stroke="#657F91" stroke-width="1.246" stroke-miterlimit="10"/><path d="M119.176 94.7188L142.387 94.7188L142.387 64.7003L119.176 64.7003L119.176 94.7188Z" fill="#657F91" stroke="#fff" stroke-width=".598" stroke-miterlimit="10"/><path d="M125.121 89.9871H136.441V80.0931C136.441 76.9643 133.908 74.4258 130.781 74.4258C127.656 74.4258 125.121 76.9622 125.121 80.0931V89.9871Z" fill="#fff"/><path d="M130.777 70.8438V91.7132" stroke="#657F91" stroke-width="1.246" stroke-miterlimit="10"/><path d="M124.812 79.8184H136.751" stroke="#657F91" stroke-width="1.246" stroke-miterlimit="10"/><path fill="#657F91" d="M-67.668 93.33H200.66500000000002V156.32999999999998H-67.668z"/><path d="M13.7615 65.1679H95.1522V60.3262H32.9095L13.6213 63.3187C12.4856 63.4942 12.6134 65.1679 13.7615 65.1679Z" fill="#657F91"/><path d="M38.3891 50.4433H115.686V45.6016H78.429L38.3293 49.0564C37.4471 49.1328 37.5028 50.4433 38.3891 50.4433Z" fill="#657F91"/><path d="M174.751 50.4433H97.4531V45.6016H134.709L174.809 49.0564C175.693 49.1328 175.637 50.4433 174.751 50.4433Z" fill="#657F91"/><path d="M199.866 65.1679H80.3125V60.3262H180.718L200.006 63.3187C201.141 63.4942 201.014 65.1679 199.866 65.1679Z" fill="#657F91"/><path d="M168.817 50.4375H44.332V60.313H168.817V50.4375Z" fill="#657F91"/><path d="M102.84 52.6367H98.1055V58.0977H102.84V52.6367Z" fill="#fff"/><path d="M95.1173 52.6367H90.3828V58.0977H95.1173V52.6367Z" fill="#fff"/><path d="M88.0118 52.6367H83.2773V58.0977H88.0118V52.6367Z" fill="#fff"/><path d="M65.5744 52.6367H60.8398V58.0977H65.5744V52.6367Z" fill="#fff"/><path d="M57.8448 52.6367H53.9883V58.0977H57.8448V52.6367Z" fill="#fff"/><path d="M51.9409 52.6367H50.0117V58.0977H51.9409V52.6367Z" fill="#fff"/><path d="M110.781 58.0957L115.516 58.0957L115.516 52.6348L110.781 52.6348L110.781 58.0957Z" fill="#fff"/><path d="M118.516 58.0957L123.25 58.0957L123.25 52.6348L118.516 52.6348L118.516 58.0957Z" fill="#fff"/><path d="M125.605 58.0957L130.34 58.0957L130.34 52.6348L125.605 52.6348L125.605 58.0957Z" fill="#fff"/><path d="M106.914 37.1786L77.1896 39.1248C76.9113 39.1434 76.6681 38.9288 76.6496 38.6501C76.631 38.3715 76.8454 38.128 77.1236 38.1094L106.848 36.1632C107.126 36.1447 107.369 36.3593 107.388 36.6379C107.406 36.9165 107.194 37.1601 106.914 37.1786Z" fill="#657F91"/><path d="M79.7866 39.0492V45.897C79.7866 45.9816 79.7186 46.0497 79.6341 46.0497H79.2033C79.1188 46.0497 79.0508 45.9816 79.0508 45.897V39.0492C79.0508 38.9646 79.1188 38.8965 79.2033 38.8965H79.6341C79.7165 38.8965 79.7866 38.9646 79.7866 39.0492Z" fill="#657F91"/><path d="M107.169 36.8121V45.8724C107.169 45.9694 107.091 46.0478 106.994 46.0478H106.609C106.512 46.0478 106.434 45.9694 106.434 45.8724V36.8121C106.434 36.7151 106.512 36.6367 106.609 36.6367H106.994C107.091 36.6367 107.169 36.7172 107.169 36.8121Z" fill="#657F91"/><path d="M102.814 37.2299V45.8732C102.814 45.9681 102.737 46.0445 102.643 46.0445H102.249C102.154 46.0445 102.078 45.9681 102.078 45.8732V37.2299C102.078 37.135 102.154 37.0586 102.249 37.0586H102.643C102.737 37.0586 102.814 37.135 102.814 37.2299Z" fill="#657F91"/><path d="M79.6923 40.4916H106.285C106.438 40.4916 106.564 40.3657 106.564 40.213V40.1263C106.564 39.9735 106.438 39.8477 106.285 39.8477H79.6923C79.5398 39.8477 79.4141 39.9735 79.4141 40.1263V40.213C79.4141 40.3657 79.5398 40.4916 79.6923 40.4916Z" fill="#657F91"/><path d="M79.6923 43.3685H106.285C106.438 43.3685 106.564 43.2426 106.564 43.0899V43.0032C106.564 42.8505 106.438 42.7246 106.285 42.7246H79.6923C79.5398 42.7246 79.4141 42.8505 79.4141 43.0032V43.0899C79.4141 43.2426 79.5398 43.3685 79.6923 43.3685Z" fill="#657F91"/><path d="M98.7065 37.5735V45.8721C98.7065 45.965 98.6302 46.0393 98.5395 46.0393H98.1396C98.0469 46.0393 97.9727 45.9629 97.9727 45.8721V37.5735C97.9727 37.4806 98.0489 37.4063 98.1396 37.4063H98.5395C98.6322 37.4042 98.7065 37.4806 98.7065 37.5735Z" fill="#657F91"/><path d="M94.9311 37.4368V45.8696C94.9311 45.9625 94.8549 46.0389 94.7621 46.0389H94.3643C94.2716 46.0389 94.1953 45.9625 94.1953 45.8696V37.4368C94.1953 37.3439 94.2716 37.2676 94.3643 37.2676H94.7621C94.8569 37.2676 94.9311 37.3439 94.9311 37.4368Z" fill="#657F91"/><path d="M91.3529 38.0576V45.8795C91.3529 45.9703 91.2788 46.0425 91.1902 46.0425H90.78C90.6893 46.0425 90.6172 45.9682 90.6172 45.8795V38.0576C90.6172 37.9668 90.6914 37.8945 90.78 37.8945H91.1902C91.2788 37.8945 91.3529 37.9688 91.3529 38.0576Z" fill="#657F91"/><path d="M88.6148 37.8819V45.8834C88.6148 45.9742 88.5406 46.0485 88.4499 46.0485H88.0438C87.9531 46.0485 87.8789 45.9742 87.8789 45.8834V37.8819C87.8789 37.7911 87.9531 37.7168 88.0438 37.7168H88.4499C88.5406 37.7168 88.6148 37.7911 88.6148 37.8819Z" fill="#657F91"/><path d="M86.2475 38.2782V45.8813C86.2475 45.9701 86.1754 46.0423 86.0868 46.0423H85.6725C85.5839 46.0423 85.5117 45.9701 85.5117 45.8813V38.2782C85.5117 38.1894 85.5839 38.1172 85.6725 38.1172H86.0868C86.1754 38.1172 86.2475 38.1894 86.2475 38.2782Z" fill="#657F91"/><path d="M84.195 38.3661V45.8825C84.195 45.9713 84.1228 46.0435 84.0342 46.0435H83.6178C83.5291 46.0435 83.457 45.9713 83.457 45.8825V38.3661C83.457 38.2773 83.5291 38.2051 83.6178 38.2051H84.0342C84.1228 38.2051 84.195 38.2773 84.195 38.3661Z" fill="#657F91"/><path d="M81.9881 38.5671V45.8875C81.9881 45.9742 81.918 46.0464 81.8294 46.0464H81.4088C81.3222 46.0464 81.25 45.9763 81.25 45.8875V38.5671C81.25 38.4804 81.3201 38.4082 81.4088 38.4082H81.8294C81.918 38.4082 81.9881 38.4804 81.9881 38.5671Z" fill="#657F91"/><path d="M106.655 37.1786L136.379 39.1248C136.657 39.1434 136.9 38.9288 136.919 38.6501C136.937 38.3715 136.723 38.128 136.445 38.1094L106.721 36.1632C106.443 36.1447 106.199 36.3593 106.181 36.6379C106.162 36.9165 106.377 37.1601 106.655 37.1786Z" fill="#657F91"/><path d="M133.789 39.0492V45.897C133.789 45.9816 133.857 46.0497 133.942 46.0497H134.372C134.457 46.0497 134.525 45.9816 134.525 45.897V39.0492C134.525 38.9646 134.457 38.8965 134.372 38.8965H133.942C133.857 38.8965 133.789 38.9646 133.789 39.0492Z" fill="#657F91"/><path d="M106.402 36.8102V45.8704C106.402 45.9674 106.481 46.0458 106.578 46.0458H106.963C107.06 46.0458 107.138 45.9674 107.138 45.8704V36.8102C107.138 36.7132 107.06 36.6348 106.963 36.6348H106.578C106.483 36.6348 106.402 36.7153 106.402 36.8102Z" fill="#657F91"/><path d="M110.75 37.2299V45.8732C110.75 45.9681 110.826 46.0445 110.921 46.0445H111.315C111.41 46.0445 111.486 45.9681 111.486 45.8732V37.2299C111.486 37.135 111.41 37.0586 111.315 37.0586H110.921C110.828 37.0586 110.75 37.135 110.75 37.2299Z" fill="#657F91"/><path d="M133.879 40.4916H107.286C107.134 40.4916 107.008 40.3657 107.008 40.213V40.1263C107.008 39.9735 107.134 39.8477 107.286 39.8477H133.879C134.031 39.8477 134.157 39.9735 134.157 40.1263V40.213C134.157 40.3657 134.031 40.4916 133.879 40.4916Z" fill="#657F91"/><path d="M133.879 43.3685H107.286C107.134 43.3685 107.008 43.2426 107.008 43.0899V43.0032C107.008 42.8505 107.134 42.7246 107.286 42.7246H133.879C134.031 42.7246 134.157 42.8505 134.157 43.0032V43.0899C134.157 43.2426 134.031 43.3685 133.879 43.3685Z" fill="#657F91"/><path d="M114.859 37.5735V45.8721C114.859 45.965 114.936 46.0393 115.026 46.0393H115.426C115.519 46.0393 115.593 45.9629 115.593 45.8721V37.5735C115.593 37.4806 115.517 37.4063 115.426 37.4063H115.026C114.934 37.4042 114.859 37.4806 114.859 37.5735Z" fill="#657F91"/><path d="M118.645 37.4349V45.8677C118.645 45.9605 118.721 46.0369 118.814 46.0369H119.211C119.304 46.0369 119.38 45.9605 119.38 45.8677V37.4349C119.38 37.342 119.304 37.2656 119.211 37.2656H118.814C118.721 37.2656 118.645 37.342 118.645 37.4349Z" fill="#657F91"/><path d="M122.223 38.0576V45.8795C122.223 45.9703 122.297 46.0425 122.385 46.0425H122.796C122.886 46.0425 122.958 45.9682 122.958 45.8795V38.0576C122.958 37.9668 122.884 37.8945 122.796 37.8945H122.385C122.295 37.8945 122.223 37.9688 122.223 38.0576Z" fill="#657F91"/><path d="M124.957 37.8819V45.8834C124.957 45.9742 125.031 46.0485 125.122 46.0485H125.528C125.619 46.0485 125.693 45.9742 125.693 45.8834V37.8819C125.693 37.7911 125.619 37.7168 125.528 37.7168H125.122C125.031 37.7168 124.957 37.7911 124.957 37.8819Z" fill="#657F91"/><path d="M127.324 38.2782V45.8813C127.324 45.9701 127.396 46.0423 127.485 46.0423H127.899C127.988 46.0423 128.06 45.9701 128.06 45.8813V38.2782C128.06 38.1894 127.988 38.1172 127.899 38.1172H127.485C127.396 38.1172 127.324 38.1894 127.324 38.2782Z" fill="#657F91"/><path d="M129.371 38.3661V45.8825C129.371 45.9713 129.443 46.0435 129.532 46.0435H129.948C130.037 46.0435 130.109 45.9713 130.109 45.8825V38.3661C130.109 38.2773 130.037 38.2051 129.948 38.2051H129.532C129.443 38.2051 129.371 38.2773 129.371 38.3661Z" fill="#657F91"/><path d="M131.574 38.5671V45.8875C131.574 45.9742 131.644 46.0464 131.733 46.0464H132.153C132.24 46.0464 132.312 45.9763 132.312 45.8875V38.5671C132.312 38.4804 132.242 38.4082 132.153 38.4082H131.733C131.644 38.4082 131.574 38.4804 131.574 38.5671Z" fill="#657F91"/><defs><clipPath id="clip0_79_3843"><path d="M0 33.6C0 21.8389 0 15.9583 2.28886 11.4662C4.3022 7.5148 7.5148 4.3022 11.4662 2.28886C15.9583 0 21.8389 0 33.6 0H106.4C118.161 0 124.042 0 128.534 2.28886C132.485 4.3022 135.698 7.5148 137.711 11.4662C140 15.9583 140 21.8389 140 33.6V106.4C140 118.161 140 124.042 137.711 128.534C135.698 132.485 132.485 135.698 128.534 137.711C124.042 140 118.161 140 106.4 140H33.6C21.8389 140 15.9583 140 11.4662 137.711C7.5148 135.698 4.3022 132.485 2.28886 128.534C0 124.042 0 118.161 0 106.4V33.6Z" fill="#fff"/></clipPath></defs></svg>