<svg width="92" height="92" viewBox="0 0 92 92" fill="none" xmlns="http://www.w3.org/2000/svg"><path d="M6 46C6 23.9086 23.9086 6 46 6V6C68.0914 6 86 23.9086 86 46V46C86 68.0914 68.0914 86 46 86V86C23.9086 86 6 68.0914 6 46V46Z" fill="#F5F6F9"/><circle cx="46" cy="46" r="44.5" stroke="#E21A1A" stroke-width="3"/><rect x="25" y="30" width="42" height="32" rx="7" fill="#768B9D"/><path d="M56.5 36C56.5 34.6193 57.6193 33.5 59 33.5L61 33.5C62.3807 33.5 63.5 34.6193 63.5 36V36C63.5 37.3807 62.3807 38.5 61 38.5H59C57.6193 38.5 56.5 37.3807 56.5 36V36Z" fill="#fff"/><circle cx="42" cy="46" r="11" fill="#fff"/><circle cx="42" cy="46" r="8" fill="#E21A1A"/></svg>