<svg width="103" height="52" viewBox="0 0 103 52" fill="none" xmlns="http://www.w3.org/2000/svg"><path d="M48.5844 14.0391C49.5644 17.3408 49.5644 17.3408 49.5644 18.0426H49.8244C49.8244 17.3408 49.8244 17.3408 50.8044 14.0391H52.6144V19.229H51.5894V15.0033H51.3294C51.3294 15.6344 51.3294 15.6344 50.2594 19.229H49.1244C48.0594 15.6344 48.0594 15.6344 48.0594 15.0033H47.7994V19.229H46.7744V14.0391H48.5844Z" fill="#353735"/><path d="M55.9109 16.634C55.9109 16.0534 55.9409 15.9727 56.5809 14.0391H57.6259V14.3925L56.4109 17.8608C55.9309 19.234 55.4109 19.234 54.7159 19.234H54.1559V18.3101H54.7209C55.1559 18.3101 55.2159 18.3051 55.3309 17.9416L55.4709 17.5226H54.5209L53.3809 14.3925V14.0391H54.4109C55.0859 15.9727 55.1159 16.0534 55.1159 16.634H55.9109V16.634Z" fill="#353735"/><path d="M57.9951 19.0973V18.1078H58.3001L59.2501 18.3552H59.8301C60.4201 18.3552 60.4201 18.335 60.4201 17.7241C60.4201 17.093 60.3901 17.093 59.8301 17.093H59.1251V16.1691H59.8301C60.4201 16.1691 60.4201 16.1489 60.4201 15.5381C60.4201 14.907 60.3901 14.907 59.8301 14.907H59.2501L58.3001 15.1544H57.9951V14.1649C59.0401 13.9023 59.4201 13.9023 59.7251 13.9023C61.6001 13.9023 61.6001 15.0029 61.6001 15.3563C61.6001 15.6643 61.6001 16.361 60.8451 16.5528V16.7144C61.6001 16.9062 61.6001 17.6029 61.6001 17.9109C61.6001 18.2542 61.6001 19.3649 59.7251 19.3649C59.4201 19.3598 59.0451 19.3598 57.9951 19.0973Z" fill="#353735"/><path d="M63.7462 18.3051H65.8812V19.229H62.7012V14.0391H65.8812V14.9629H63.7462V16.1746H65.4662V17.0985H63.7462V18.3051Z" fill="#353735"/><path d="M69.1789 12.9348C69.5989 12.9348 69.634 12.8994 69.854 12.6066L70.3689 12.9953C69.8739 13.6466 69.524 13.6466 69.004 13.6466H68.9189C68.3939 13.6466 68.0389 13.6466 67.5539 12.9853L68.0689 12.6016C68.2839 12.8944 68.3239 12.9297 68.7439 12.9297H69.1789V12.9348ZM68.1789 17.8218C68.1789 17.0746 68.549 16.3274 69.684 14.0353H71.0139V19.2303H70.0139V15.4439H69.754C69.754 16.1911 69.3839 16.9383 68.2489 19.2303H66.9189V14.0404H67.9189V17.8268H68.1789V17.8218Z" fill="#353735"/><path d="M51.18 25.4389L52.835 27.6855V28.0389H51.7C50.98 27.0695 50.545 26.4839 50.545 25.9033H50.085V28.0389H49.04V25.9033H48.58C48.58 26.4839 48.145 27.0695 47.425 28.0389H46.29V27.6855L47.94 25.4389L46.29 23.1923V22.8389H47.425C48.145 23.793 48.58 24.3585 48.58 24.9744H49.04V22.8389H50.085V24.9744H50.545C50.545 24.3938 50.98 23.8082 51.7 22.8389H52.835V23.1923L51.18 25.4389Z" fill="#353735"/><path d="M54.6994 27.1107H56.8344V28.0397H53.6494V22.8447H56.8344V23.7686H54.6994V24.9803H56.4194V25.9041H54.6994V27.1107Z" fill="#353735"/><path d="M61.7891 22.8447V28.0346H60.7441V23.7686H59.4791C59.4641 24.4148 59.4491 25.1973 59.2691 26.6412C59.1091 27.8882 58.9641 28.0498 57.3291 28.0498V27.2521C58.0341 27.2521 58.1991 27.1915 58.3041 26.4898C58.5091 25.0307 58.5241 24.2331 58.5441 22.8447H61.7891Z" fill="#353735"/><path d="M64.13 27.1107H66.265V28.0397H63.085V22.8447H66.265V23.7686H64.13V24.9803H65.85V25.9041H64.13V27.1107Z" fill="#353735"/><path d="M66.9502 27.903V26.9134H67.2552L68.2052 27.1608H68.7852C69.3752 27.1608 69.3752 27.1406 69.3752 26.5298C69.3752 25.8987 69.3452 25.8987 68.7852 25.8987H68.0802V24.9748H68.7852C69.3752 24.9748 69.3752 24.9546 69.3752 24.3437C69.3752 23.7127 69.3452 23.7127 68.7852 23.7127H68.2052L67.2552 23.96H66.9502V22.9705C67.9952 22.708 68.3752 22.708 68.6802 22.708C70.5552 22.708 70.5552 23.8086 70.5552 24.162C70.5552 24.4699 70.5552 25.1666 69.8002 25.3585V25.52C70.5552 25.7119 70.5552 26.4086 70.5552 26.7165C70.5552 27.0599 70.5552 28.1705 68.6802 28.1705C68.3752 28.1705 67.9952 28.1705 66.9502 27.903Z" fill="#353735"/><path d="M72.6993 24.9803H74.4393V22.8447H75.4893V28.0346H74.4393V25.9041H72.6993V28.0346H71.6543V22.8447H72.6993V24.9803Z" fill="#353735"/><path d="M82.0542 28.0346H81.0092V22.8447H82.0542V28.0346ZM77.8292 27.1107H78.5492C79.2492 27.1107 79.2492 27.0906 79.2492 26.2373C79.2492 25.374 79.2492 25.374 78.5492 25.374H77.8292V27.1107ZM76.7842 22.8447H77.8292V24.4502H78.1342C79.2442 24.4502 80.3592 24.4502 80.3592 26.2373C80.3592 28.0346 79.2492 28.0346 78.1342 28.0346H76.7842V22.8447V22.8447Z" fill="#353735"/><path d="M87.2739 28.0346H86.1939C85.5839 27.0098 85.2939 26.515 85.2939 25.8991H84.9039C84.9039 26.515 84.6039 27.0047 83.9939 28.0346H82.9189V27.6762L84.2489 25.4397L82.9189 23.2032V22.8447H83.9939C84.6039 23.8696 84.9039 24.3694 84.9039 24.9803H85.2939C85.2939 24.3694 85.5839 23.8746 86.1939 22.8447H87.2739V23.2032L85.9439 25.4397L87.2739 27.6762V28.0346Z" fill="#353735"/><path d="M48.375 32.5733C48.375 33.4164 48.315 34.6836 47.765 35.9154H49.61V32.5733H48.375ZM47.125 36.8444V37.9752H46.21V35.9205H46.75C47.36 34.5574 47.435 33.3609 47.435 32.2451V31.6494H50.66V35.9154H51.335V37.9702H50.42V36.8393H47.125V36.8444Z" fill="#353735"/><path d="M53.0198 34.1772V34.3084C53.0198 35.9593 53.0198 35.9593 54.0198 35.9593C55.0198 35.9593 55.0198 35.9593 55.0198 34.3084V34.1772C55.0198 32.5263 55.0198 32.5263 54.0198 32.5263C53.0198 32.5263 53.0198 32.5263 53.0198 34.1772ZM54.1298 31.5166C56.1548 31.5166 56.1548 33.1877 56.1548 34.0257V34.4649C56.1548 35.303 56.1548 36.9741 54.1298 36.9741H53.9098C51.8848 36.9741 51.8848 35.303 51.8848 34.4649V34.0257C51.8848 33.1877 51.8848 31.5166 53.9098 31.5166H54.1298V31.5166Z" fill="#353735"/><path d="M58.2813 34.4867H59.1513C59.8713 34.4867 59.8713 34.4867 59.8713 33.5325C59.8713 32.5733 59.8713 32.5733 59.1513 32.5733H58.2813V34.4867ZM57.2363 31.6494H58.7163C59.8713 31.6494 60.9813 31.6494 60.9813 33.5325C60.9813 35.4106 59.8713 35.4106 58.7163 35.4106H58.2813V36.8393H57.2363V31.6494V31.6494Z" fill="#353735"/><path d="M62.8459 34.1772V34.3084C62.8459 35.9593 62.8459 35.9593 63.8459 35.9593C64.8459 35.9593 64.8459 35.9593 64.8459 34.3084V34.1772C64.8459 32.5263 64.8459 32.5263 63.8459 32.5263C62.8459 32.5263 62.8459 32.5263 62.8459 34.1772ZM63.9559 31.5166C65.9809 31.5166 65.9809 33.1877 65.9809 34.0257V34.4649C65.9809 35.303 65.9809 36.9741 63.9559 36.9741H63.7359C61.7109 36.9741 61.7109 35.303 61.7109 34.4649V34.0257C61.7109 33.1877 61.7109 31.5166 63.7359 31.5166H63.9559V31.5166Z" fill="#353735"/><path d="M68.1046 36.8444H67.0596V31.6494H69.9796V32.5733H68.1046V36.8444Z" fill="#353735"/><path d="M74.0343 34.4867H74.9043C75.6243 34.4867 75.6243 34.4867 75.6243 33.5325C75.6243 32.5733 75.6243 32.5733 74.9043 32.5733H74.0343V34.4867ZM72.9893 31.6494H74.4693C75.6243 31.6494 76.7343 31.6494 76.7343 33.5325C76.7343 35.4106 75.6243 35.4106 74.4693 35.4106H74.0343V36.8393H72.9893V31.6494Z" fill="#353735"/><path d="M78.5989 34.1772V34.3084C78.5989 35.9593 78.5989 35.9593 79.5989 35.9593C80.5989 35.9593 80.5989 35.9593 80.5989 34.3084V34.1772C80.5989 32.5263 80.5989 32.5263 79.5989 32.5263C78.5989 32.5263 78.5989 32.5263 78.5989 34.1772ZM79.7089 31.5166C81.7339 31.5166 81.7339 33.1877 81.7339 34.0257V34.4649C81.7339 35.303 81.7339 36.9741 79.7089 36.9741H79.4889C77.4639 36.9741 77.4639 35.303 77.4639 34.4649V34.0257C77.4639 33.1877 77.4639 31.5166 79.4889 31.5166H79.7089V31.5166Z" fill="#353735"/><path d="M84.6637 31.5166C86.4737 31.5166 86.4737 32.8242 86.4737 33.2634L85.4437 33.5209C85.1987 32.5213 85.1988 32.5213 84.5788 32.5213C83.7288 32.5213 83.7288 32.5213 83.7288 34.1116V34.3741C83.7288 35.9644 83.7288 35.9644 84.7738 35.9644H85.0488L86.0387 35.717H86.3438V36.7065C85.2988 36.969 84.9037 36.969 84.5987 36.969C82.5937 36.969 82.5938 35.4949 82.5938 34.4599V34.0257C82.5938 33.122 82.5937 31.5166 84.4887 31.5166H84.6637V31.5166Z" fill="#353735"/><path d="M89.2752 31.5166C91.0852 31.5166 91.0852 32.8242 91.0852 33.2634L90.0552 33.5209C89.8052 32.5213 89.8052 32.5213 89.1902 32.5213C88.3402 32.5213 88.3402 32.5213 88.3402 34.1116V34.3741C88.3402 35.9644 88.3402 35.9644 89.3852 35.9644H89.6602L90.6452 35.717H90.9502V36.7065C89.9052 36.969 89.5102 36.969 89.2052 36.969C87.2002 36.969 87.2002 35.4949 87.2002 34.4599V34.0257C87.2002 33.122 87.2002 31.5166 89.0952 31.5166H89.2752V31.5166Z" fill="#353735"/><path d="M93.2942 35.4358C93.2942 34.6886 93.6642 33.9415 94.7992 31.6494H96.1292V36.8444H95.1292V33.058H94.8692C94.8692 33.8051 94.4992 34.5523 93.3642 36.8444H92.0342V31.6494H93.0342V35.4358H93.2942Z" fill="#353735"/><path d="M98.684 35.4358C98.684 34.6886 99.0539 33.9415 100.189 31.6494H101.519V36.8444H100.514V33.058H100.254C100.254 33.8051 99.8839 34.5523 98.7489 36.8444H97.4189V31.6494H98.424V35.4358H98.684Z" fill="#353735"/><path d="M26.7147 20.0059V24.7464C25.2097 27.0839 24.0597 29.6738 23.3447 32.4404V24.8575C24.3047 23.1259 25.4347 21.5002 26.7147 20.0059Z" fill="#E21A1A"/><path d="M15.5083 31.5468L15.4883 10.2066C16.5583 9.78253 17.6833 9.46447 18.8483 9.26758V22.6462C17.3483 25.4078 16.2133 28.3965 15.5083 31.5468Z" fill="#E21A1A"/><path d="M26.7147 9.8287V17.9367C25.4347 19.3755 24.3597 20.8749 23.3447 22.5106V9.12695C24.5047 9.24307 25.6347 9.4854 26.7147 9.8287Z" fill="#E21A1A"/><path d="M26.8385 36.7817L26.8235 36.9028H23.4385C24.1735 28.3405 28.9785 21.0555 35.8585 16.9863C36.4585 17.9456 36.9635 18.9704 37.3635 20.0508C31.5835 23.5494 27.5385 29.6683 26.8385 36.7817Z" fill="#353735"/><path d="M18.9203 36.7834L18.9103 36.9096H15.5303L15.5353 36.8439L15.5403 36.7783L15.5453 36.7026L15.5503 36.6269C16.3253 26.1006 21.9103 16.9325 30.0953 11.3438C31.1153 11.9445 32.0653 12.6513 32.9353 13.449C25.0553 18.3814 19.6303 26.9236 18.9203 36.7834Z" fill="#353735"/><path d="M21.6303 5.2002C33.0053 5.2002 42.2303 14.5148 42.2303 26.0002C42.2303 37.4856 33.0053 46.8002 21.6303 46.8002C10.2553 46.8002 1.03027 37.4856 1.03027 26.0002C1.03027 14.5148 10.2553 5.2002 21.6303 5.2002ZM21.6303 8.19903C11.8953 8.19903 4.00027 16.1656 4.00027 26.0002C4.00027 35.8297 11.8903 43.8014 21.6303 43.8014C31.3653 43.8014 39.2603 35.8297 39.2603 26.0002C39.2603 16.1707 31.3653 8.19903 21.6303 8.19903Z" fill="#353735"/></svg>