<svg width="59" height="59" viewBox="0 0 59 59" fill="none" xmlns="http://www.w3.org/2000/svg"><rect x=".945" y=".18" width="58.023" height="58.023" rx="16.006" fill="#E21A1A"/><path d="M35.6836 22.5039V27.7936C33.9879 30.4018 32.6923 33.2917 31.8867 36.3788V27.9175C32.9683 25.9853 34.2414 24.1714 35.6836 22.5039Z" fill="#fff"/><path d="M23.0577 35.3813L23.0352 11.5693C24.2407 11.0961 25.5082 10.7412 26.8207 10.5215V25.4498C25.1308 28.5312 23.852 31.8661 23.0577 35.3813Z" fill="#fff"/><path d="M35.6836 11.1463V20.1934C34.2414 21.7989 33.0303 23.472 31.8867 25.2972V10.3633C33.1936 10.4928 34.4668 10.7632 35.6836 11.1463Z" fill="#fff"/><path d="M35.8228 41.223L35.8059 41.3582H31.9922C32.8203 31.8041 38.2339 23.6752 45.9853 19.1348C46.6613 20.2051 47.2303 21.3487 47.681 22.5542C41.1689 26.4581 36.6115 33.2857 35.8228 41.223Z" fill="#fff"/><path d="M26.9014 41.2242L26.8902 41.365H23.082L23.0877 41.2918L23.0933 41.2185L23.0989 41.1341L23.1046 41.0496C23.9777 29.3041 30.2701 19.074 39.4919 12.8379C40.6411 13.5083 41.7114 14.2969 42.6916 15.187C33.8135 20.6907 27.7014 30.2223 26.9014 41.2242Z" fill="#fff"/><path d="M29.9554 5.98242C42.7712 5.98242 53.1646 16.3759 53.1646 29.1917C53.1646 42.0075 42.7712 52.401 29.9554 52.401C17.1396 52.401 6.74609 42.0075 6.74609 29.1917C6.74609 16.3759 17.1396 5.98242 29.9554 5.98242ZM29.9554 9.32861C18.9873 9.32861 10.0923 18.218 10.0923 29.1917C10.0923 40.1598 18.9817 49.0548 29.9554 49.0548C40.9234 49.0548 49.8185 40.1598 49.8185 29.1917C49.8185 18.2236 40.9234 9.32861 29.9554 9.32861Z" fill="#fff"/></svg>