<svg width="68" height="30" viewBox="0 0 68 30" fill="none" xmlns="http://www.w3.org/2000/svg"><path d="M47.7027 2.66321V3.73967H56.9778C57.3613 3.6505 57.7611 3.66074 58.1396 3.7694C58.5181 3.87806 58.8627 4.08161 59.1411 4.36081C59.4195 4.64 59.6224 4.98568 59.7307 5.36528C59.8391 5.74488 59.8492 6.14588 59.7603 6.53053V15.8334C59.8492 16.218 59.8391 16.619 59.7307 16.9986C59.6224 17.3782 59.4195 17.7239 59.1411 18.0031C58.8627 18.2823 58.5181 18.4858 58.1396 18.5945C57.7611 18.7031 57.3613 18.7134 56.9778 18.6242H52.4992C51.7307 18.6242 50.7237 18.6242 50.3262 17.7737C50.2121 17.3782 50.2099 16.9587 50.3199 16.5621C50.4299 16.1654 50.6477 15.8073 50.949 15.5277L56.9778 7.46083H47.7027L43.9926 12.4312C43.343 13.1023 42.937 13.9728 42.8398 14.9031C42.929 15.8395 43.3359 16.7167 43.9926 17.3883L44.9201 18.6242C45.7037 19.8763 46.7591 20.9347 48.0074 21.7207C49.5123 22.2847 51.1252 22.4983 52.7245 22.3453H56.6995C59.0183 22.3453 62.4899 22.3453 64.8087 20.0196C67.1275 17.6939 67.1804 14.2652 67.1804 13.0425V9.32138C67.1804 8.08544 67.1804 4.66997 64.8617 2.34427C62.5429 0.0185596 59.0713 0.0185597 56.7526 0.0185597H50.3262C49.9676 -0.0249417 49.604 0.00823648 49.2591 0.115897C48.9142 0.223557 48.596 0.403259 48.3254 0.64318C48.0894 0.91924 47.9123 1.24094 47.8051 1.5884C47.698 1.93587 47.6632 2.30168 47.7027 2.66321" fill="#E7352A"/><path d="M36.4669 7.30176H45.7606L34.6081 22.3929H25.3145L36.4669 7.30176Z" fill="#E7352A"/><path d="M0.0186051 9.98501C-0.0250027 9.62511 0.00825661 9.2601 0.11618 8.91395C0.224103 8.56781 0.404245 8.24841 0.644752 7.97679C0.921487 7.73984 1.24399 7.56207 1.5923 7.45455C1.94061 7.34704 2.30732 7.31205 2.66973 7.35171H18.2834C19.8914 7.19482 21.514 7.40868 23.0261 7.97679C24.2824 8.76639 25.3472 9.82483 26.1435 11.0756L27.0628 12.3258C27.726 12.9918 28.1399 13.8652 28.2351 14.7995C28.1296 15.7349 27.7175 16.6092 27.0628 17.2866L23.3325 22.2473H14.007L20.0686 14.1744C20.3728 13.8955 20.5927 13.5372 20.7033 13.1399C20.814 12.7427 20.811 12.3224 20.6947 11.9268C20.3084 11.0756 19.2959 11.0756 18.5099 11.0756H11.2093V29.6951H3.74884V11.0756H0.0186051V9.98501Z" fill="#E7352A"/></svg>