<svg width="60" height="60" viewBox="0 0 60 60" fill="none" xmlns="http://www.w3.org/2000/svg"><circle cx="30" cy="30" r="29.389" fill="#fff" stroke="#768B9D" stroke-width="1.223"/><path d="M21.2909 18H38.7091C41.6312 18 44 20.3688 44 23.2909V36.7091C44 39.6312 41.6312 42 38.7091 42H21.2909C18.3688 42 16 39.6312 16 36.7091V23.2909C16 20.3688 18.3688 18 21.2909 18Z" stroke="#E21A1A" stroke-width="2"/><path d="M34.7153 24.5474L24.8647 28.7319C24.3077 28.9704 24.3211 29.7746 24.8781 29.9927L28.4614 31.4034C28.6358 31.4716 28.7768 31.6147 28.8439 31.7919L30.2262 35.4243C30.4409 35.9968 31.2394 36.0104 31.4743 35.4448L35.6011 25.447C35.8225 24.8813 35.2656 24.3157 34.7153 24.5474Z" fill="#E21A1A"/></svg>