<svg width="60" height="60" viewBox="0 0 60 60" fill="none" xmlns="http://www.w3.org/2000/svg"><circle cx="30" cy="30" r="29.389" fill="#fff" stroke="#768B9D" stroke-width="1.223"/><path d="M41.5 24.8148C41.5 26.2741 40.8092 28.3672 39.6451 30.7965C38.4991 33.1879 36.9619 35.771 35.4109 38.164C33.8621 40.5534 32.3115 42.7348 31.1472 44.3199C30.6999 44.9288 30.3101 45.449 30 45.8585C29.6898 45.449 29.3001 44.9288 28.8528 44.3199C27.6885 42.7348 26.1379 40.5534 24.5891 38.164C23.0381 35.771 21.5009 33.1879 20.3549 30.7965C19.1908 28.3672 18.5 26.2741 18.5 24.8148C18.5 18.5798 23.6346 13.5 30 13.5C36.3654 13.5 41.5 18.5798 41.5 24.8148Z" stroke="#E21A1A" stroke-width="2"/><circle cx="30" cy="25" r="4" stroke="#E21A1A" stroke-width="2"/></svg>